<svg xmlns="http://www.w3.org/2000/svg" width="20.425" height="20.423" viewBox="0 0 20.425 20.423">
  <path id="pen" d="M18.079.793a2.813,2.813,0,0,0-3.974,0l-.995,1L2.519,12.378,2.5,12.4c-.005.005-.005.011-.011.011-.011.017-.028.034-.039.05s-.006.006-.006.011-.017.028-.028.045-.005.011-.011.017-.011.028-.017.045-.005.005-.005.011L.029,19.658a.553.553,0,0,0,.135.573.566.566,0,0,0,.4.163.663.663,0,0,0,.18-.028L7.8,18.011c.005,0,.005,0,.011-.005a.2.2,0,0,0,.05-.023.02.02,0,0,0,.011-.005c.017-.011.039-.023.056-.034s.034-.028.051-.039.011-.006.011-.011.017-.011.023-.023L19.6,6.285a2.813,2.813,0,0,0,0-3.974ZM7.623,16.69,3.711,12.777,13.5,2.985,17.415,6.9ZM3.16,13.817l3.418,3.418L1.445,18.944ZM18.81,5.5l-.6.6L14.3,2.187l.6-.6a1.686,1.686,0,0,1,2.383,0l1.529,1.529A1.692,1.692,0,0,1,18.81,5.5Zm0,0" transform="translate(0.001 0.029)" fill="#fff"/>
</svg>
